<?xml version="1.0" encoding="UTF-8" ?>
<svg version="1.1" width="36" height="36" xmlns="http://www.w3.org/2000/svg" shape-rendering="crispEdges">
<rect x="0" y="0" width="1" height="1" fill="#F5F7FA" />
<rect x="1" y="0" width="1" height="1" fill="#F5F7FA" />
<rect x="2" y="0" width="1" height="1" fill="#F5F7FA" />
<rect x="3" y="0" width="1" height="1" fill="#F5F7FA" />
<rect x="4" y="0" width="1" height="1" fill="#F5F7FA" />
<rect x="5" y="0" width="1" height="1" fill="#F5F7FA" />
<rect x="6" y="0" width="1" height="1" fill="#F5F7FA" />
<rect x="7" y="0" width="1" height="1" fill="#F5F7FA" />
<rect x="8" y="0" width="1" height="1" fill="#F5F7FA" />
<rect x="9" y="0" width="1" height="1" fill="#F5F7FA" />
<rect x="10" y="0" width="1" height="1" fill="#F5F7FA" />
<rect x="11" y="0" width="1" height="1" fill="#F5F7FA" />
<rect x="12" y="0" width="1" height="1" fill="#F5F7FA" />
<rect x="13" y="0" width="1" height="1" fill="#F5F7FA" />
<rect x="14" y="0" width="1" height="1" fill="#F5F7FA" />
<rect x="15" y="0" width="1" height="1" fill="#F5F7FA" />
<rect x="16" y="0" width="1" height="1" fill="#F5F7FA" />
<rect x="17" y="0" width="1" height="1" fill="#F5F7FA" />
<rect x="18" y="0" width="1" height="1" fill="#F5F7FA" />
<rect x="19" y="0" width="1" height="1" fill="#F5F7FA" />
<rect x="20" y="0" width="1" height="1" fill="#F5F7FA" />
<rect x="21" y="0" width="1" height="1" fill="#F5F7FA" />
<rect x="22" y="0" width="1" height="1" fill="#F5F7FA" />
<rect x="23" y="0" width="1" height="1" fill="#F5F7FA" />
<rect x="24" y="0" width="1" height="1" fill="#F5F7FA" />
<rect x="25" y="0" width="1" height="1" fill="#F5F7FA" />
<rect x="26" y="0" width="1" height="1" fill="#F5F7FA" />
<rect x="27" y="0" width="1" height="1" fill="#F5F7FA" />
<rect x="28" y="0" width="1" height="1" fill="#F5F7FA" />
<rect x="29" y="0" width="1" height="1" fill="#F5F7FA" />
<rect x="30" y="0" width="1" height="1" fill="#F5F7FA" />
<rect x="31" y="0" width="1" height="1" fill="#F5F7FA" />
<rect x="32" y="0" width="1" height="1" fill="#F5F7FA" />
<rect x="33" y="0" width="1" height="1" fill="#F5F7FA" />
<rect x="34" y="0" width="1" height="1" fill="#F5F7FA" />
<rect x="35" y="0" width="1" height="1" fill="#F5F7FA" />
<rect x="0" y="1" width="1" height="1" fill="#F5F7FA" />
<rect x="1" y="1" width="1" height="1" fill="#F5F7FA" />
<rect x="2" y="1" width="1" height="1" fill="#F5F7FA" />
<rect x="3" y="1" width="1" height="1" fill="#F5F7FA" />
<rect x="4" y="1" width="1" height="1" fill="#F5F7FA" />
<rect x="5" y="1" width="1" height="1" fill="#F5F7FA" />
<rect x="6" y="1" width="1" height="1" fill="#F5F7FA" />
<rect x="7" y="1" width="1" height="1" fill="#F5F7FA" />
<rect x="8" y="1" width="1" height="1" fill="#F5F7FA" />
<rect x="9" y="1" width="1" height="1" fill="#F5F7FA" />
<rect x="10" y="1" width="1" height="1" fill="#F5F7FA" />
<rect x="11" y="1" width="1" height="1" fill="#F5F7FA" />
<rect x="12" y="1" width="1" height="1" fill="#F5F7FA" />
<rect x="13" y="1" width="1" height="1" fill="#F5F7FA" />
<rect x="14" y="1" width="1" height="1" fill="#F5F7FA" />
<rect x="15" y="1" width="1" height="1" fill="#F5F7FA" />
<rect x="16" y="1" width="1" height="1" fill="#F5F7FA" />
<rect x="17" y="1" width="1" height="1" fill="#F5F7FA" />
<rect x="18" y="1" width="1" height="1" fill="#F5F7FA" />
<rect x="19" y="1" width="1" height="1" fill="#F5F7FA" />
<rect x="20" y="1" width="1" height="1" fill="#F5F7FA" />
<rect x="21" y="1" width="1" height="1" fill="#F5F7FA" />
<rect x="22" y="1" width="1" height="1" fill="#F5F7FA" />
<rect x="23" y="1" width="1" height="1" fill="#F5F7FA" />
<rect x="24" y="1" width="1" height="1" fill="#F5F7FA" />
<rect x="25" y="1" width="1" height="1" fill="#F5F7FA" />
<rect x="26" y="1" width="1" height="1" fill="#F5F7FA" />
<rect x="27" y="1" width="1" height="1" fill="#F5F7FA" />
<rect x="28" y="1" width="1" height="1" fill="#F5F7FA" />
<rect x="29" y="1" width="1" height="1" fill="#F5F7FA" />
<rect x="30" y="1" width="1" height="1" fill="#F5F7FA" />
<rect x="31" y="1" width="1" height="1" fill="#F5F7FA" />
<rect x="32" y="1" width="1" height="1" fill="#F5F7FA" />
<rect x="33" y="1" width="1" height="1" fill="#F5F7FA" />
<rect x="34" y="1" width="1" height="1" fill="#F5F7FA" />
<rect x="35" y="1" width="1" height="1" fill="#F5F7FA" />
<rect x="0" y="2" width="1" height="1" fill="#F5F7FA" />
<rect x="1" y="2" width="1" height="1" fill="#F5F7FA" />
<rect x="2" y="2" width="1" height="1" fill="#F5F7FA" />
<rect x="3" y="2" width="1" height="1" fill="#F5F7FA" />
<rect x="4" y="2" width="1" height="1" fill="#F5F7FA" />
<rect x="5" y="2" width="1" height="1" fill="#F5F7FA" />
<rect x="6" y="2" width="1" height="1" fill="#F5F7FA" />
<rect x="7" y="2" width="1" height="1" fill="#F5F7FA" />
<rect x="8" y="2" width="1" height="1" fill="#F5F7FA" />
<rect x="9" y="2" width="1" height="1" fill="#F5F7FA" />
<rect x="10" y="2" width="1" height="1" fill="#F5F7FA" />
<rect x="11" y="2" width="1" height="1" fill="#F5F7FA" />
<rect x="12" y="2" width="1" height="1" fill="#F5F7FA" />
<rect x="13" y="2" width="1" height="1" fill="#F5F7FA" />
<rect x="14" y="2" width="1" height="1" fill="#F5F7FA" />
<rect x="15" y="2" width="1" height="1" fill="#F5F7FA" />
<rect x="16" y="2" width="1" height="1" fill="#F5F7FA" />
<rect x="17" y="2" width="1" height="1" fill="#F5F7FA" />
<rect x="18" y="2" width="1" height="1" fill="#F5F7FA" />
<rect x="19" y="2" width="1" height="1" fill="#F5F7FA" />
<rect x="20" y="2" width="1" height="1" fill="#F5F7FA" />
<rect x="21" y="2" width="1" height="1" fill="#F5F7FA" />
<rect x="22" y="2" width="1" height="1" fill="#F5F7FA" />
<rect x="23" y="2" width="1" height="1" fill="#F5F7FA" />
<rect x="24" y="2" width="1" height="1" fill="#F5F7FA" />
<rect x="25" y="2" width="1" height="1" fill="#F5F7FA" />
<rect x="26" y="2" width="1" height="1" fill="#F5F7FA" />
<rect x="27" y="2" width="1" height="1" fill="#F5F7FA" />
<rect x="28" y="2" width="1" height="1" fill="#F5F7FA" />
<rect x="29" y="2" width="1" height="1" fill="#F5F7FA" />
<rect x="30" y="2" width="1" height="1" fill="#F5F7FA" />
<rect x="31" y="2" width="1" height="1" fill="#F5F7FA" />
<rect x="32" y="2" width="1" height="1" fill="#F5F7FA" />
<rect x="33" y="2" width="1" height="1" fill="#F5F7FA" />
<rect x="34" y="2" width="1" height="1" fill="#F5F7FA" />
<rect x="35" y="2" width="1" height="1" fill="#F5F7FA" />
<rect x="0" y="3" width="1" height="1" fill="#F5F7FA" />
<rect x="1" y="3" width="1" height="1" fill="#F5F7FA" />
<rect x="2" y="3" width="1" height="1" fill="#F5F7FA" />
<rect x="3" y="3" width="1" height="1" fill="#F5F7FA" />
<rect x="4" y="3" width="1" height="1" fill="#F5F7FA" />
<rect x="5" y="3" width="1" height="1" fill="#F5F7FA" />
<rect x="6" y="3" width="1" height="1" fill="#F5F7FA" />
<rect x="7" y="3" width="1" height="1" fill="#F5F7FA" />
<rect x="8" y="3" width="1" height="1" fill="#F5F7FA" />
<rect x="9" y="3" width="1" height="1" fill="#F5F7FA" />
<rect x="10" y="3" width="1" height="1" fill="#F5F7FA" />
<rect x="11" y="3" width="1" height="1" fill="#F5F7FA" />
<rect x="12" y="3" width="1" height="1" fill="#F5F7FA" />
<rect x="13" y="3" width="1" height="1" fill="#F5F7FA" />
<rect x="14" y="3" width="1" height="1" fill="#F5F7FA" />
<rect x="15" y="3" width="1" height="1" fill="#F5F7FA" />
<rect x="16" y="3" width="1" height="1" fill="#F5F7FA" />
<rect x="17" y="3" width="1" height="1" fill="#F5F7FA" />
<rect x="18" y="3" width="1" height="1" fill="#F5F7FA" />
<rect x="19" y="3" width="1" height="1" fill="#F5F7FA" />
<rect x="20" y="3" width="1" height="1" fill="#F5F7FA" />
<rect x="21" y="3" width="1" height="1" fill="#F5F7FA" />
<rect x="22" y="3" width="1" height="1" fill="#F5F7FA" />
<rect x="23" y="3" width="1" height="1" fill="#F5F7FA" />
<rect x="24" y="3" width="1" height="1" fill="#F5F7FA" />
<rect x="25" y="3" width="1" height="1" fill="#F5F7FA" />
<rect x="26" y="3" width="1" height="1" fill="#F5F7FA" />
<rect x="27" y="3" width="1" height="1" fill="#F5F7FA" />
<rect x="28" y="3" width="1" height="1" fill="#F5F7FA" />
<rect x="29" y="3" width="1" height="1" fill="#F5F7FA" />
<rect x="30" y="3" width="1" height="1" fill="#F5F7FA" />
<rect x="31" y="3" width="1" height="1" fill="#F5F7FA" />
<rect x="32" y="3" width="1" height="1" fill="#F5F7FA" />
<rect x="33" y="3" width="1" height="1" fill="#F5F7FA" />
<rect x="34" y="3" width="1" height="1" fill="#F5F7FA" />
<rect x="35" y="3" width="1" height="1" fill="#F5F7FA" />
<rect x="0" y="4" width="1" height="1" fill="#F5F7FA" />
<rect x="1" y="4" width="1" height="1" fill="#F5F7FA" />
<rect x="2" y="4" width="1" height="1" fill="#F5F7FA" />
<rect x="3" y="4" width="1" height="1" fill="#F5F7FA" />
<rect x="4" y="4" width="1" height="1" fill="#F5F7FA" />
<rect x="5" y="4" width="1" height="1" fill="#F5F7FA" />
<rect x="6" y="4" width="1" height="1" fill="#F5F7FA" />
<rect x="7" y="4" width="1" height="1" fill="#F5F7FA" />
<rect x="8" y="4" width="1" height="1" fill="#F5F7FA" />
<rect x="9" y="4" width="1" height="1" fill="#F5F7FA" />
<rect x="10" y="4" width="1" height="1" fill="#F5F7FA" />
<rect x="11" y="4" width="1" height="1" fill="#F5F7FA" />
<rect x="12" y="4" width="1" height="1" fill="#F5F7FA" />
<rect x="13" y="4" width="1" height="1" fill="#F5F7FA" />
<rect x="14" y="4" width="1" height="1" fill="#F5F7FA" />
<rect x="15" y="4" width="1" height="1" fill="#F5F7FA" />
<rect x="16" y="4" width="1" height="1" fill="#F5F7FA" />
<rect x="17" y="4" width="1" height="1" fill="#F5F7FA" />
<rect x="18" y="4" width="1" height="1" fill="#F5F7FA" />
<rect x="19" y="4" width="1" height="1" fill="#F5F7FA" />
<rect x="20" y="4" width="1" height="1" fill="#F5F7FA" />
<rect x="21" y="4" width="1" height="1" fill="#F5F7FA" />
<rect x="22" y="4" width="1" height="1" fill="#F5F7FA" />
<rect x="23" y="4" width="1" height="1" fill="#F5F7FA" />
<rect x="24" y="4" width="1" height="1" fill="#F5F7FA" />
<rect x="25" y="4" width="1" height="1" fill="#F5F7FA" />
<rect x="26" y="4" width="1" height="1" fill="#F5F7FA" />
<rect x="27" y="4" width="1" height="1" fill="#F5F7FA" />
<rect x="28" y="4" width="1" height="1" fill="#F5F7FA" />
<rect x="29" y="4" width="1" height="1" fill="#F5F7FA" />
<rect x="30" y="4" width="1" height="1" fill="#F5F7FA" />
<rect x="31" y="4" width="1" height="1" fill="#F5F7FA" />
<rect x="32" y="4" width="1" height="1" fill="#F5F7FA" />
<rect x="33" y="4" width="1" height="1" fill="#F5F7FA" />
<rect x="34" y="4" width="1" height="1" fill="#F5F7FA" />
<rect x="35" y="4" width="1" height="1" fill="#F5F7FA" />
<rect x="0" y="5" width="1" height="1" fill="#F5F7FA" />
<rect x="1" y="5" width="1" height="1" fill="#F5F7FA" />
<rect x="2" y="5" width="1" height="1" fill="#F5F7FA" />
<rect x="3" y="5" width="1" height="1" fill="#F5F7FA" />
<rect x="4" y="5" width="1" height="1" fill="#F5F7FA" />
<rect x="5" y="5" width="1" height="1" fill="#F5F7FA" />
<rect x="6" y="5" width="1" height="1" fill="#F5F7FA" />
<rect x="7" y="5" width="1" height="1" fill="#F5F7FA" />
<rect x="8" y="5" width="1" height="1" fill="#F5F7FA" />
<rect x="9" y="5" width="1" height="1" fill="#F5F7FA" />
<rect x="10" y="5" width="1" height="1" fill="#F5F7FA" />
<rect x="11" y="5" width="1" height="1" fill="#F5F7FA" />
<rect x="12" y="5" width="1" height="1" fill="#F5F7FA" />
<rect x="13" y="5" width="1" height="1" fill="#F5F7FA" />
<rect x="14" y="5" width="1" height="1" fill="#F5F7FA" />
<rect x="15" y="5" width="1" height="1" fill="#F5F7FA" />
<rect x="16" y="5" width="1" height="1" fill="#F5F7FA" />
<rect x="17" y="5" width="1" height="1" fill="#F5F7FA" />
<rect x="18" y="5" width="1" height="1" fill="#F5F7FA" />
<rect x="19" y="5" width="1" height="1" fill="#F5F7FA" />
<rect x="20" y="5" width="1" height="1" fill="#F5F7FA" />
<rect x="21" y="5" width="1" height="1" fill="#F5F7FA" />
<rect x="22" y="5" width="1" height="1" fill="#F5F7FA" />
<rect x="23" y="5" width="1" height="1" fill="#F5F7FA" />
<rect x="24" y="5" width="1" height="1" fill="#F5F7FA" />
<rect x="25" y="5" width="1" height="1" fill="#F5F7FA" />
<rect x="26" y="5" width="1" height="1" fill="#F5F7FA" />
<rect x="27" y="5" width="1" height="1" fill="#F5F7FA" />
<rect x="28" y="5" width="1" height="1" fill="#F5F7FA" />
<rect x="29" y="5" width="1" height="1" fill="#F5F7FA" />
<rect x="30" y="5" width="1" height="1" fill="#F5F7FA" />
<rect x="31" y="5" width="1" height="1" fill="#F5F7FA" />
<rect x="32" y="5" width="1" height="1" fill="#F5F7FA" />
<rect x="33" y="5" width="1" height="1" fill="#F5F7FA" />
<rect x="34" y="5" width="1" height="1" fill="#F5F7FA" />
<rect x="35" y="5" width="1" height="1" fill="#F5F7FA" />
<rect x="0" y="15" width="1" height="1" fill="#F5F7FA" />
<rect x="1" y="15" width="1" height="1" fill="#F5F7FA" />
<rect x="2" y="15" width="1" height="1" fill="#F5F7FA" />
<rect x="3" y="15" width="1" height="1" fill="#F5F7FA" />
<rect x="4" y="15" width="1" height="1" fill="#F5F7FA" />
<rect x="5" y="15" width="1" height="1" fill="#F5F7FA" />
<rect x="6" y="15" width="1" height="1" fill="#F5F7FA" />
<rect x="7" y="15" width="1" height="1" fill="#F5F7FA" />
<rect x="8" y="15" width="1" height="1" fill="#F5F7FA" />
<rect x="9" y="15" width="1" height="1" fill="#F5F7FA" />
<rect x="10" y="15" width="1" height="1" fill="#F5F7FA" />
<rect x="11" y="15" width="1" height="1" fill="#F5F7FA" />
<rect x="12" y="15" width="1" height="1" fill="#F5F7FA" />
<rect x="13" y="15" width="1" height="1" fill="#F5F7FA" />
<rect x="14" y="15" width="1" height="1" fill="#F5F7FA" />
<rect x="15" y="15" width="1" height="1" fill="#F5F7FA" />
<rect x="16" y="15" width="1" height="1" fill="#F5F7FA" />
<rect x="17" y="15" width="1" height="1" fill="#F5F7FA" />
<rect x="18" y="15" width="1" height="1" fill="#F5F7FA" />
<rect x="19" y="15" width="1" height="1" fill="#F5F7FA" />
<rect x="20" y="15" width="1" height="1" fill="#F5F7FA" />
<rect x="21" y="15" width="1" height="1" fill="#F5F7FA" />
<rect x="22" y="15" width="1" height="1" fill="#F5F7FA" />
<rect x="23" y="15" width="1" height="1" fill="#F5F7FA" />
<rect x="24" y="15" width="1" height="1" fill="#F5F7FA" />
<rect x="25" y="15" width="1" height="1" fill="#F5F7FA" />
<rect x="26" y="15" width="1" height="1" fill="#F5F7FA" />
<rect x="27" y="15" width="1" height="1" fill="#F5F7FA" />
<rect x="28" y="15" width="1" height="1" fill="#F5F7FA" />
<rect x="29" y="15" width="1" height="1" fill="#F5F7FA" />
<rect x="30" y="15" width="1" height="1" fill="#F5F7FA" />
<rect x="31" y="15" width="1" height="1" fill="#F5F7FA" />
<rect x="32" y="15" width="1" height="1" fill="#F5F7FA" />
<rect x="33" y="15" width="1" height="1" fill="#F5F7FA" />
<rect x="34" y="15" width="1" height="1" fill="#F5F7FA" />
<rect x="35" y="15" width="1" height="1" fill="#F5F7FA" />
<rect x="0" y="16" width="1" height="1" fill="#F5F7FA" />
<rect x="1" y="16" width="1" height="1" fill="#F5F7FA" />
<rect x="2" y="16" width="1" height="1" fill="#F5F7FA" />
<rect x="3" y="16" width="1" height="1" fill="#F5F7FA" />
<rect x="4" y="16" width="1" height="1" fill="#F5F7FA" />
<rect x="5" y="16" width="1" height="1" fill="#F5F7FA" />
<rect x="6" y="16" width="1" height="1" fill="#F5F7FA" />
<rect x="7" y="16" width="1" height="1" fill="#F5F7FA" />
<rect x="8" y="16" width="1" height="1" fill="#F5F7FA" />
<rect x="9" y="16" width="1" height="1" fill="#F5F7FA" />
<rect x="10" y="16" width="1" height="1" fill="#F5F7FA" />
<rect x="11" y="16" width="1" height="1" fill="#F5F7FA" />
<rect x="12" y="16" width="1" height="1" fill="#F5F7FA" />
<rect x="13" y="16" width="1" height="1" fill="#F5F7FA" />
<rect x="14" y="16" width="1" height="1" fill="#F5F7FA" />
<rect x="15" y="16" width="1" height="1" fill="#F5F7FA" />
<rect x="16" y="16" width="1" height="1" fill="#F5F7FA" />
<rect x="17" y="16" width="1" height="1" fill="#F5F7FA" />
<rect x="18" y="16" width="1" height="1" fill="#F5F7FA" />
<rect x="19" y="16" width="1" height="1" fill="#F5F7FA" />
<rect x="20" y="16" width="1" height="1" fill="#F5F7FA" />
<rect x="21" y="16" width="1" height="1" fill="#F5F7FA" />
<rect x="22" y="16" width="1" height="1" fill="#F5F7FA" />
<rect x="23" y="16" width="1" height="1" fill="#F5F7FA" />
<rect x="24" y="16" width="1" height="1" fill="#F5F7FA" />
<rect x="25" y="16" width="1" height="1" fill="#F5F7FA" />
<rect x="26" y="16" width="1" height="1" fill="#F5F7FA" />
<rect x="27" y="16" width="1" height="1" fill="#F5F7FA" />
<rect x="28" y="16" width="1" height="1" fill="#F5F7FA" />
<rect x="29" y="16" width="1" height="1" fill="#F5F7FA" />
<rect x="30" y="16" width="1" height="1" fill="#F5F7FA" />
<rect x="31" y="16" width="1" height="1" fill="#F5F7FA" />
<rect x="32" y="16" width="1" height="1" fill="#F5F7FA" />
<rect x="33" y="16" width="1" height="1" fill="#F5F7FA" />
<rect x="34" y="16" width="1" height="1" fill="#F5F7FA" />
<rect x="35" y="16" width="1" height="1" fill="#F5F7FA" />
<rect x="0" y="17" width="1" height="1" fill="#F5F7FA" />
<rect x="1" y="17" width="1" height="1" fill="#F5F7FA" />
<rect x="2" y="17" width="1" height="1" fill="#F5F7FA" />
<rect x="3" y="17" width="1" height="1" fill="#F5F7FA" />
<rect x="4" y="17" width="1" height="1" fill="#F5F7FA" />
<rect x="5" y="17" width="1" height="1" fill="#F5F7FA" />
<rect x="6" y="17" width="1" height="1" fill="#F5F7FA" />
<rect x="7" y="17" width="1" height="1" fill="#F5F7FA" />
<rect x="8" y="17" width="1" height="1" fill="#F5F7FA" />
<rect x="9" y="17" width="1" height="1" fill="#F5F7FA" />
<rect x="10" y="17" width="1" height="1" fill="#F5F7FA" />
<rect x="11" y="17" width="1" height="1" fill="#F5F7FA" />
<rect x="12" y="17" width="1" height="1" fill="#F5F7FA" />
<rect x="13" y="17" width="1" height="1" fill="#F5F7FA" />
<rect x="14" y="17" width="1" height="1" fill="#F5F7FA" />
<rect x="15" y="17" width="1" height="1" fill="#F5F7FA" />
<rect x="16" y="17" width="1" height="1" fill="#F5F7FA" />
<rect x="17" y="17" width="1" height="1" fill="#F5F7FA" />
<rect x="18" y="17" width="1" height="1" fill="#F5F7FA" />
<rect x="19" y="17" width="1" height="1" fill="#F5F7FA" />
<rect x="20" y="17" width="1" height="1" fill="#F5F7FA" />
<rect x="21" y="17" width="1" height="1" fill="#F5F7FA" />
<rect x="22" y="17" width="1" height="1" fill="#F5F7FA" />
<rect x="23" y="17" width="1" height="1" fill="#F5F7FA" />
<rect x="24" y="17" width="1" height="1" fill="#F5F7FA" />
<rect x="25" y="17" width="1" height="1" fill="#F5F7FA" />
<rect x="26" y="17" width="1" height="1" fill="#F5F7FA" />
<rect x="27" y="17" width="1" height="1" fill="#F5F7FA" />
<rect x="28" y="17" width="1" height="1" fill="#F5F7FA" />
<rect x="29" y="17" width="1" height="1" fill="#F5F7FA" />
<rect x="30" y="17" width="1" height="1" fill="#F5F7FA" />
<rect x="31" y="17" width="1" height="1" fill="#F5F7FA" />
<rect x="32" y="17" width="1" height="1" fill="#F5F7FA" />
<rect x="33" y="17" width="1" height="1" fill="#F5F7FA" />
<rect x="34" y="17" width="1" height="1" fill="#F5F7FA" />
<rect x="35" y="17" width="1" height="1" fill="#F5F7FA" />
<rect x="0" y="18" width="1" height="1" fill="#F5F7FA" />
<rect x="1" y="18" width="1" height="1" fill="#F5F7FA" />
<rect x="2" y="18" width="1" height="1" fill="#F5F7FA" />
<rect x="3" y="18" width="1" height="1" fill="#F5F7FA" />
<rect x="4" y="18" width="1" height="1" fill="#F5F7FA" />
<rect x="5" y="18" width="1" height="1" fill="#F5F7FA" />
<rect x="6" y="18" width="1" height="1" fill="#F5F7FA" />
<rect x="7" y="18" width="1" height="1" fill="#F5F7FA" />
<rect x="8" y="18" width="1" height="1" fill="#F5F7FA" />
<rect x="9" y="18" width="1" height="1" fill="#F5F7FA" />
<rect x="10" y="18" width="1" height="1" fill="#F5F7FA" />
<rect x="11" y="18" width="1" height="1" fill="#F5F7FA" />
<rect x="12" y="18" width="1" height="1" fill="#F5F7FA" />
<rect x="13" y="18" width="1" height="1" fill="#F5F7FA" />
<rect x="14" y="18" width="1" height="1" fill="#F5F7FA" />
<rect x="15" y="18" width="1" height="1" fill="#F5F7FA" />
<rect x="16" y="18" width="1" height="1" fill="#F5F7FA" />
<rect x="17" y="18" width="1" height="1" fill="#F5F7FA" />
<rect x="18" y="18" width="1" height="1" fill="#F5F7FA" />
<rect x="19" y="18" width="1" height="1" fill="#F5F7FA" />
<rect x="20" y="18" width="1" height="1" fill="#F5F7FA" />
<rect x="21" y="18" width="1" height="1" fill="#F5F7FA" />
<rect x="22" y="18" width="1" height="1" fill="#F5F7FA" />
<rect x="23" y="18" width="1" height="1" fill="#F5F7FA" />
<rect x="24" y="18" width="1" height="1" fill="#F5F7FA" />
<rect x="25" y="18" width="1" height="1" fill="#F5F7FA" />
<rect x="26" y="18" width="1" height="1" fill="#F5F7FA" />
<rect x="27" y="18" width="1" height="1" fill="#F5F7FA" />
<rect x="28" y="18" width="1" height="1" fill="#F5F7FA" />
<rect x="29" y="18" width="1" height="1" fill="#F5F7FA" />
<rect x="30" y="18" width="1" height="1" fill="#F5F7FA" />
<rect x="31" y="18" width="1" height="1" fill="#F5F7FA" />
<rect x="32" y="18" width="1" height="1" fill="#F5F7FA" />
<rect x="33" y="18" width="1" height="1" fill="#F5F7FA" />
<rect x="34" y="18" width="1" height="1" fill="#F5F7FA" />
<rect x="35" y="18" width="1" height="1" fill="#F5F7FA" />
<rect x="0" y="19" width="1" height="1" fill="#F5F7FA" />
<rect x="1" y="19" width="1" height="1" fill="#F5F7FA" />
<rect x="2" y="19" width="1" height="1" fill="#F5F7FA" />
<rect x="3" y="19" width="1" height="1" fill="#F5F7FA" />
<rect x="4" y="19" width="1" height="1" fill="#F5F7FA" />
<rect x="5" y="19" width="1" height="1" fill="#F5F7FA" />
<rect x="6" y="19" width="1" height="1" fill="#F5F7FA" />
<rect x="7" y="19" width="1" height="1" fill="#F5F7FA" />
<rect x="8" y="19" width="1" height="1" fill="#F5F7FA" />
<rect x="9" y="19" width="1" height="1" fill="#F5F7FA" />
<rect x="10" y="19" width="1" height="1" fill="#F5F7FA" />
<rect x="11" y="19" width="1" height="1" fill="#F5F7FA" />
<rect x="12" y="19" width="1" height="1" fill="#F5F7FA" />
<rect x="13" y="19" width="1" height="1" fill="#F5F7FA" />
<rect x="14" y="19" width="1" height="1" fill="#F5F7FA" />
<rect x="15" y="19" width="1" height="1" fill="#F5F7FA" />
<rect x="16" y="19" width="1" height="1" fill="#F5F7FA" />
<rect x="17" y="19" width="1" height="1" fill="#F5F7FA" />
<rect x="18" y="19" width="1" height="1" fill="#F5F7FA" />
<rect x="19" y="19" width="1" height="1" fill="#F5F7FA" />
<rect x="20" y="19" width="1" height="1" fill="#F5F7FA" />
<rect x="21" y="19" width="1" height="1" fill="#F5F7FA" />
<rect x="22" y="19" width="1" height="1" fill="#F5F7FA" />
<rect x="23" y="19" width="1" height="1" fill="#F5F7FA" />
<rect x="24" y="19" width="1" height="1" fill="#F5F7FA" />
<rect x="25" y="19" width="1" height="1" fill="#F5F7FA" />
<rect x="26" y="19" width="1" height="1" fill="#F5F7FA" />
<rect x="27" y="19" width="1" height="1" fill="#F5F7FA" />
<rect x="28" y="19" width="1" height="1" fill="#F5F7FA" />
<rect x="29" y="19" width="1" height="1" fill="#F5F7FA" />
<rect x="30" y="19" width="1" height="1" fill="#F5F7FA" />
<rect x="31" y="19" width="1" height="1" fill="#F5F7FA" />
<rect x="32" y="19" width="1" height="1" fill="#F5F7FA" />
<rect x="33" y="19" width="1" height="1" fill="#F5F7FA" />
<rect x="34" y="19" width="1" height="1" fill="#F5F7FA" />
<rect x="35" y="19" width="1" height="1" fill="#F5F7FA" />
<rect x="0" y="20" width="1" height="1" fill="#F5F7FA" />
<rect x="1" y="20" width="1" height="1" fill="#F5F7FA" />
<rect x="2" y="20" width="1" height="1" fill="#F5F7FA" />
<rect x="3" y="20" width="1" height="1" fill="#F5F7FA" />
<rect x="4" y="20" width="1" height="1" fill="#F5F7FA" />
<rect x="5" y="20" width="1" height="1" fill="#F5F7FA" />
<rect x="6" y="20" width="1" height="1" fill="#F5F7FA" />
<rect x="7" y="20" width="1" height="1" fill="#F5F7FA" />
<rect x="8" y="20" width="1" height="1" fill="#F5F7FA" />
<rect x="9" y="20" width="1" height="1" fill="#F5F7FA" />
<rect x="10" y="20" width="1" height="1" fill="#F5F7FA" />
<rect x="11" y="20" width="1" height="1" fill="#F5F7FA" />
<rect x="12" y="20" width="1" height="1" fill="#F5F7FA" />
<rect x="13" y="20" width="1" height="1" fill="#F5F7FA" />
<rect x="14" y="20" width="1" height="1" fill="#F5F7FA" />
<rect x="15" y="20" width="1" height="1" fill="#F5F7FA" />
<rect x="16" y="20" width="1" height="1" fill="#F5F7FA" />
<rect x="17" y="20" width="1" height="1" fill="#F5F7FA" />
<rect x="18" y="20" width="1" height="1" fill="#F5F7FA" />
<rect x="19" y="20" width="1" height="1" fill="#F5F7FA" />
<rect x="20" y="20" width="1" height="1" fill="#F5F7FA" />
<rect x="21" y="20" width="1" height="1" fill="#F5F7FA" />
<rect x="22" y="20" width="1" height="1" fill="#F5F7FA" />
<rect x="23" y="20" width="1" height="1" fill="#F5F7FA" />
<rect x="24" y="20" width="1" height="1" fill="#F5F7FA" />
<rect x="25" y="20" width="1" height="1" fill="#F5F7FA" />
<rect x="26" y="20" width="1" height="1" fill="#F5F7FA" />
<rect x="27" y="20" width="1" height="1" fill="#F5F7FA" />
<rect x="28" y="20" width="1" height="1" fill="#F5F7FA" />
<rect x="29" y="20" width="1" height="1" fill="#F5F7FA" />
<rect x="30" y="20" width="1" height="1" fill="#F5F7FA" />
<rect x="31" y="20" width="1" height="1" fill="#F5F7FA" />
<rect x="32" y="20" width="1" height="1" fill="#F5F7FA" />
<rect x="33" y="20" width="1" height="1" fill="#F5F7FA" />
<rect x="34" y="20" width="1" height="1" fill="#F5F7FA" />
<rect x="35" y="20" width="1" height="1" fill="#F5F7FA" />
<rect x="0" y="30" width="1" height="1" fill="#F5F7FA" />
<rect x="1" y="30" width="1" height="1" fill="#F5F7FA" />
<rect x="2" y="30" width="1" height="1" fill="#F5F7FA" />
<rect x="3" y="30" width="1" height="1" fill="#F5F7FA" />
<rect x="4" y="30" width="1" height="1" fill="#F5F7FA" />
<rect x="5" y="30" width="1" height="1" fill="#F5F7FA" />
<rect x="6" y="30" width="1" height="1" fill="#F5F7FA" />
<rect x="7" y="30" width="1" height="1" fill="#F5F7FA" />
<rect x="8" y="30" width="1" height="1" fill="#F5F7FA" />
<rect x="9" y="30" width="1" height="1" fill="#F5F7FA" />
<rect x="10" y="30" width="1" height="1" fill="#F5F7FA" />
<rect x="11" y="30" width="1" height="1" fill="#F5F7FA" />
<rect x="12" y="30" width="1" height="1" fill="#F5F7FA" />
<rect x="13" y="30" width="1" height="1" fill="#F5F7FA" />
<rect x="14" y="30" width="1" height="1" fill="#F5F7FA" />
<rect x="15" y="30" width="1" height="1" fill="#F5F7FA" />
<rect x="16" y="30" width="1" height="1" fill="#F5F7FA" />
<rect x="17" y="30" width="1" height="1" fill="#F5F7FA" />
<rect x="18" y="30" width="1" height="1" fill="#F5F7FA" />
<rect x="19" y="30" width="1" height="1" fill="#F5F7FA" />
<rect x="20" y="30" width="1" height="1" fill="#F5F7FA" />
<rect x="21" y="30" width="1" height="1" fill="#F5F7FA" />
<rect x="22" y="30" width="1" height="1" fill="#F5F7FA" />
<rect x="23" y="30" width="1" height="1" fill="#F5F7FA" />
<rect x="24" y="30" width="1" height="1" fill="#F5F7FA" />
<rect x="25" y="30" width="1" height="1" fill="#F5F7FA" />
<rect x="26" y="30" width="1" height="1" fill="#F5F7FA" />
<rect x="27" y="30" width="1" height="1" fill="#F5F7FA" />
<rect x="28" y="30" width="1" height="1" fill="#F5F7FA" />
<rect x="29" y="30" width="1" height="1" fill="#F5F7FA" />
<rect x="30" y="30" width="1" height="1" fill="#F5F7FA" />
<rect x="31" y="30" width="1" height="1" fill="#F5F7FA" />
<rect x="32" y="30" width="1" height="1" fill="#F5F7FA" />
<rect x="33" y="30" width="1" height="1" fill="#F5F7FA" />
<rect x="34" y="30" width="1" height="1" fill="#F5F7FA" />
<rect x="35" y="30" width="1" height="1" fill="#F5F7FA" />
<rect x="0" y="31" width="1" height="1" fill="#F5F7FA" />
<rect x="1" y="31" width="1" height="1" fill="#F5F7FA" />
<rect x="2" y="31" width="1" height="1" fill="#F5F7FA" />
<rect x="3" y="31" width="1" height="1" fill="#F5F7FA" />
<rect x="4" y="31" width="1" height="1" fill="#F5F7FA" />
<rect x="5" y="31" width="1" height="1" fill="#F5F7FA" />
<rect x="6" y="31" width="1" height="1" fill="#F5F7FA" />
<rect x="7" y="31" width="1" height="1" fill="#F5F7FA" />
<rect x="8" y="31" width="1" height="1" fill="#F5F7FA" />
<rect x="9" y="31" width="1" height="1" fill="#F5F7FA" />
<rect x="10" y="31" width="1" height="1" fill="#F5F7FA" />
<rect x="11" y="31" width="1" height="1" fill="#F5F7FA" />
<rect x="12" y="31" width="1" height="1" fill="#F5F7FA" />
<rect x="13" y="31" width="1" height="1" fill="#F5F7FA" />
<rect x="14" y="31" width="1" height="1" fill="#F5F7FA" />
<rect x="15" y="31" width="1" height="1" fill="#F5F7FA" />
<rect x="16" y="31" width="1" height="1" fill="#F5F7FA" />
<rect x="17" y="31" width="1" height="1" fill="#F5F7FA" />
<rect x="18" y="31" width="1" height="1" fill="#F5F7FA" />
<rect x="19" y="31" width="1" height="1" fill="#F5F7FA" />
<rect x="20" y="31" width="1" height="1" fill="#F5F7FA" />
<rect x="21" y="31" width="1" height="1" fill="#F5F7FA" />
<rect x="22" y="31" width="1" height="1" fill="#F5F7FA" />
<rect x="23" y="31" width="1" height="1" fill="#F5F7FA" />
<rect x="24" y="31" width="1" height="1" fill="#F5F7FA" />
<rect x="25" y="31" width="1" height="1" fill="#F5F7FA" />
<rect x="26" y="31" width="1" height="1" fill="#F5F7FA" />
<rect x="27" y="31" width="1" height="1" fill="#F5F7FA" />
<rect x="28" y="31" width="1" height="1" fill="#F5F7FA" />
<rect x="29" y="31" width="1" height="1" fill="#F5F7FA" />
<rect x="30" y="31" width="1" height="1" fill="#F5F7FA" />
<rect x="31" y="31" width="1" height="1" fill="#F5F7FA" />
<rect x="32" y="31" width="1" height="1" fill="#F5F7FA" />
<rect x="33" y="31" width="1" height="1" fill="#F5F7FA" />
<rect x="34" y="31" width="1" height="1" fill="#F5F7FA" />
<rect x="35" y="31" width="1" height="1" fill="#F5F7FA" />
<rect x="0" y="32" width="1" height="1" fill="#F5F7FA" />
<rect x="1" y="32" width="1" height="1" fill="#F5F7FA" />
<rect x="2" y="32" width="1" height="1" fill="#F5F7FA" />
<rect x="3" y="32" width="1" height="1" fill="#F5F7FA" />
<rect x="4" y="32" width="1" height="1" fill="#F5F7FA" />
<rect x="5" y="32" width="1" height="1" fill="#F5F7FA" />
<rect x="6" y="32" width="1" height="1" fill="#F5F7FA" />
<rect x="7" y="32" width="1" height="1" fill="#F5F7FA" />
<rect x="8" y="32" width="1" height="1" fill="#F5F7FA" />
<rect x="9" y="32" width="1" height="1" fill="#F5F7FA" />
<rect x="10" y="32" width="1" height="1" fill="#F5F7FA" />
<rect x="11" y="32" width="1" height="1" fill="#F5F7FA" />
<rect x="12" y="32" width="1" height="1" fill="#F5F7FA" />
<rect x="13" y="32" width="1" height="1" fill="#F5F7FA" />
<rect x="14" y="32" width="1" height="1" fill="#F5F7FA" />
<rect x="15" y="32" width="1" height="1" fill="#F5F7FA" />
<rect x="16" y="32" width="1" height="1" fill="#F5F7FA" />
<rect x="17" y="32" width="1" height="1" fill="#F5F7FA" />
<rect x="18" y="32" width="1" height="1" fill="#F5F7FA" />
<rect x="19" y="32" width="1" height="1" fill="#F5F7FA" />
<rect x="20" y="32" width="1" height="1" fill="#F5F7FA" />
<rect x="21" y="32" width="1" height="1" fill="#F5F7FA" />
<rect x="22" y="32" width="1" height="1" fill="#F5F7FA" />
<rect x="23" y="32" width="1" height="1" fill="#F5F7FA" />
<rect x="24" y="32" width="1" height="1" fill="#F5F7FA" />
<rect x="25" y="32" width="1" height="1" fill="#F5F7FA" />
<rect x="26" y="32" width="1" height="1" fill="#F5F7FA" />
<rect x="27" y="32" width="1" height="1" fill="#F5F7FA" />
<rect x="28" y="32" width="1" height="1" fill="#F5F7FA" />
<rect x="29" y="32" width="1" height="1" fill="#F5F7FA" />
<rect x="30" y="32" width="1" height="1" fill="#F5F7FA" />
<rect x="31" y="32" width="1" height="1" fill="#F5F7FA" />
<rect x="32" y="32" width="1" height="1" fill="#F5F7FA" />
<rect x="33" y="32" width="1" height="1" fill="#F5F7FA" />
<rect x="34" y="32" width="1" height="1" fill="#F5F7FA" />
<rect x="35" y="32" width="1" height="1" fill="#F5F7FA" />
<rect x="0" y="33" width="1" height="1" fill="#F5F7FA" />
<rect x="1" y="33" width="1" height="1" fill="#F5F7FA" />
<rect x="2" y="33" width="1" height="1" fill="#F5F7FA" />
<rect x="3" y="33" width="1" height="1" fill="#F5F7FA" />
<rect x="4" y="33" width="1" height="1" fill="#F5F7FA" />
<rect x="5" y="33" width="1" height="1" fill="#F5F7FA" />
<rect x="6" y="33" width="1" height="1" fill="#F5F7FA" />
<rect x="7" y="33" width="1" height="1" fill="#F5F7FA" />
<rect x="8" y="33" width="1" height="1" fill="#F5F7FA" />
<rect x="9" y="33" width="1" height="1" fill="#F5F7FA" />
<rect x="10" y="33" width="1" height="1" fill="#F5F7FA" />
<rect x="11" y="33" width="1" height="1" fill="#F5F7FA" />
<rect x="12" y="33" width="1" height="1" fill="#F5F7FA" />
<rect x="13" y="33" width="1" height="1" fill="#F5F7FA" />
<rect x="14" y="33" width="1" height="1" fill="#F5F7FA" />
<rect x="15" y="33" width="1" height="1" fill="#F5F7FA" />
<rect x="16" y="33" width="1" height="1" fill="#F5F7FA" />
<rect x="17" y="33" width="1" height="1" fill="#F5F7FA" />
<rect x="18" y="33" width="1" height="1" fill="#F5F7FA" />
<rect x="19" y="33" width="1" height="1" fill="#F5F7FA" />
<rect x="20" y="33" width="1" height="1" fill="#F5F7FA" />
<rect x="21" y="33" width="1" height="1" fill="#F5F7FA" />
<rect x="22" y="33" width="1" height="1" fill="#F5F7FA" />
<rect x="23" y="33" width="1" height="1" fill="#F5F7FA" />
<rect x="24" y="33" width="1" height="1" fill="#F5F7FA" />
<rect x="25" y="33" width="1" height="1" fill="#F5F7FA" />
<rect x="26" y="33" width="1" height="1" fill="#F5F7FA" />
<rect x="27" y="33" width="1" height="1" fill="#F5F7FA" />
<rect x="28" y="33" width="1" height="1" fill="#F5F7FA" />
<rect x="29" y="33" width="1" height="1" fill="#F5F7FA" />
<rect x="30" y="33" width="1" height="1" fill="#F5F7FA" />
<rect x="31" y="33" width="1" height="1" fill="#F5F7FA" />
<rect x="32" y="33" width="1" height="1" fill="#F5F7FA" />
<rect x="33" y="33" width="1" height="1" fill="#F5F7FA" />
<rect x="34" y="33" width="1" height="1" fill="#F5F7FA" />
<rect x="35" y="33" width="1" height="1" fill="#F5F7FA" />
<rect x="0" y="34" width="1" height="1" fill="#F5F7FA" />
<rect x="1" y="34" width="1" height="1" fill="#F5F7FA" />
<rect x="2" y="34" width="1" height="1" fill="#F5F7FA" />
<rect x="3" y="34" width="1" height="1" fill="#F5F7FA" />
<rect x="4" y="34" width="1" height="1" fill="#F5F7FA" />
<rect x="5" y="34" width="1" height="1" fill="#F5F7FA" />
<rect x="6" y="34" width="1" height="1" fill="#F5F7FA" />
<rect x="7" y="34" width="1" height="1" fill="#F5F7FA" />
<rect x="8" y="34" width="1" height="1" fill="#F5F7FA" />
<rect x="9" y="34" width="1" height="1" fill="#F5F7FA" />
<rect x="10" y="34" width="1" height="1" fill="#F5F7FA" />
<rect x="11" y="34" width="1" height="1" fill="#F5F7FA" />
<rect x="12" y="34" width="1" height="1" fill="#F5F7FA" />
<rect x="13" y="34" width="1" height="1" fill="#F5F7FA" />
<rect x="14" y="34" width="1" height="1" fill="#F5F7FA" />
<rect x="15" y="34" width="1" height="1" fill="#F5F7FA" />
<rect x="16" y="34" width="1" height="1" fill="#F5F7FA" />
<rect x="17" y="34" width="1" height="1" fill="#F5F7FA" />
<rect x="18" y="34" width="1" height="1" fill="#F5F7FA" />
<rect x="19" y="34" width="1" height="1" fill="#F5F7FA" />
<rect x="20" y="34" width="1" height="1" fill="#F5F7FA" />
<rect x="21" y="34" width="1" height="1" fill="#F5F7FA" />
<rect x="22" y="34" width="1" height="1" fill="#F5F7FA" />
<rect x="23" y="34" width="1" height="1" fill="#F5F7FA" />
<rect x="24" y="34" width="1" height="1" fill="#F5F7FA" />
<rect x="25" y="34" width="1" height="1" fill="#F5F7FA" />
<rect x="26" y="34" width="1" height="1" fill="#F5F7FA" />
<rect x="27" y="34" width="1" height="1" fill="#F5F7FA" />
<rect x="28" y="34" width="1" height="1" fill="#F5F7FA" />
<rect x="29" y="34" width="1" height="1" fill="#F5F7FA" />
<rect x="30" y="34" width="1" height="1" fill="#F5F7FA" />
<rect x="31" y="34" width="1" height="1" fill="#F5F7FA" />
<rect x="32" y="34" width="1" height="1" fill="#F5F7FA" />
<rect x="33" y="34" width="1" height="1" fill="#F5F7FA" />
<rect x="34" y="34" width="1" height="1" fill="#F5F7FA" />
<rect x="35" y="34" width="1" height="1" fill="#F5F7FA" />
<rect x="0" y="35" width="1" height="1" fill="#F5F7FA" />
<rect x="1" y="35" width="1" height="1" fill="#F5F7FA" />
<rect x="2" y="35" width="1" height="1" fill="#F5F7FA" />
<rect x="3" y="35" width="1" height="1" fill="#F5F7FA" />
<rect x="4" y="35" width="1" height="1" fill="#F5F7FA" />
<rect x="5" y="35" width="1" height="1" fill="#F5F7FA" />
<rect x="6" y="35" width="1" height="1" fill="#F5F7FA" />
<rect x="7" y="35" width="1" height="1" fill="#F5F7FA" />
<rect x="8" y="35" width="1" height="1" fill="#F5F7FA" />
<rect x="9" y="35" width="1" height="1" fill="#F5F7FA" />
<rect x="10" y="35" width="1" height="1" fill="#F5F7FA" />
<rect x="11" y="35" width="1" height="1" fill="#F5F7FA" />
<rect x="12" y="35" width="1" height="1" fill="#F5F7FA" />
<rect x="13" y="35" width="1" height="1" fill="#F5F7FA" />
<rect x="14" y="35" width="1" height="1" fill="#F5F7FA" />
<rect x="15" y="35" width="1" height="1" fill="#F5F7FA" />
<rect x="16" y="35" width="1" height="1" fill="#F5F7FA" />
<rect x="17" y="35" width="1" height="1" fill="#F5F7FA" />
<rect x="18" y="35" width="1" height="1" fill="#F5F7FA" />
<rect x="19" y="35" width="1" height="1" fill="#F5F7FA" />
<rect x="20" y="35" width="1" height="1" fill="#F5F7FA" />
<rect x="21" y="35" width="1" height="1" fill="#F5F7FA" />
<rect x="22" y="35" width="1" height="1" fill="#F5F7FA" />
<rect x="23" y="35" width="1" height="1" fill="#F5F7FA" />
<rect x="24" y="35" width="1" height="1" fill="#F5F7FA" />
<rect x="25" y="35" width="1" height="1" fill="#F5F7FA" />
<rect x="26" y="35" width="1" height="1" fill="#F5F7FA" />
<rect x="27" y="35" width="1" height="1" fill="#F5F7FA" />
<rect x="28" y="35" width="1" height="1" fill="#F5F7FA" />
<rect x="29" y="35" width="1" height="1" fill="#F5F7FA" />
<rect x="30" y="35" width="1" height="1" fill="#F5F7FA" />
<rect x="31" y="35" width="1" height="1" fill="#F5F7FA" />
<rect x="32" y="35" width="1" height="1" fill="#F5F7FA" />
<rect x="33" y="35" width="1" height="1" fill="#F5F7FA" />
<rect x="34" y="35" width="1" height="1" fill="#F5F7FA" />
<rect x="35" y="35" width="1" height="1" fill="#F5F7FA" />
</svg>